<svg width="20" height="20" viewBox="0 0 20 20" fill="none" xmlns="http://www.w3.org/2000/svg">
<path d="M5.75071 17.5834C5.38196 17.5834 5.06744 17.4522 4.80716 17.1898C4.54689 16.9275 4.41675 16.6121 4.41675 16.2436V8.7565C4.41675 8.38803 4.54793 8.07261 4.81029 7.81025C5.07265 7.54789 5.38807 7.41671 5.75654 7.41671H6.41675V5.41671C6.41675 4.42226 6.76585 3.57643 7.46404 2.87921C8.1621 2.18199 9.00904 1.83337 10.0049 1.83337C11.0006 1.83337 11.8459 2.18199 12.5409 2.87921C13.2359 3.57643 13.5834 4.42226 13.5834 5.41671V7.41671H14.2436C14.6121 7.41671 14.9275 7.54789 15.1899 7.81025C15.4522 8.07261 15.5834 8.38803 15.5834 8.7565V16.2436C15.5834 16.6121 15.4522 16.9275 15.1897 17.1898C14.927 17.4522 14.6114 17.5834 14.2428 17.5834H5.75071ZM10.0045 13.7917C10.3647 13.7917 10.6694 13.6657 10.9184 13.4138C11.1673 13.162 11.2917 12.8559 11.2917 12.4957C11.2917 12.1354 11.1658 11.8307 10.9138 11.5817C10.662 11.3328 10.356 11.2084 9.99571 11.2084C9.63543 11.2084 9.33078 11.3343 9.08175 11.5863C8.83286 11.8381 8.70842 12.1441 8.70842 12.5044C8.70842 12.8647 8.83439 13.1693 9.08633 13.4184C9.33814 13.6673 9.64418 13.7917 10.0045 13.7917ZM7.50008 7.41671H12.5001V5.41671C12.5001 4.72226 12.257 4.13199 11.7709 3.64587C11.2848 3.15976 10.6945 2.91671 10.0001 2.91671C9.30564 2.91671 8.71536 3.15976 8.22925 3.64587C7.74314 4.13199 7.50008 4.72226 7.50008 5.41671V7.41671Z" fill="currentColor"/>
</svg>
