<svg width="16" height="16" viewBox="0 0 16 16" fill="none" xmlns="http://www.w3.org/2000/svg">
<path d="M4.60049 14.0667C4.30449 14.0667 4.0526 13.962 3.84483 13.7527C3.63716 13.5432 3.53333 13.2906 3.53333 12.9948V7.00518C3.53333 6.7094 3.63799 6.45679 3.84733 6.24734C4.05677 6.03801 4.30938 5.93334 4.60516 5.93334H5.13333V4.33334C5.13333 3.53779 5.4126 2.86112 5.97116 2.30334C6.5296 1.74556 7.20716 1.46667 8.00383 1.46667C8.80038 1.46667 9.47666 1.74556 10.0327 2.30334C10.5887 2.86112 10.8667 3.53779 10.8667 4.33334V5.93334H11.3948C11.6906 5.93334 11.9432 6.03801 12.1527 6.24734C12.362 6.45679 12.4667 6.7094 12.4667 7.00518V12.9948C12.4667 13.2906 12.3619 13.5432 12.1523 13.7527C11.9429 13.962 11.6902 14.0667 11.3942 14.0667H4.60049ZM4.60516 13.2H11.3948C11.4547 13.2 11.5039 13.1808 11.5423 13.1423C11.5808 13.1039 11.6 13.0547 11.6 12.9948V7.00518C11.6 6.94529 11.5808 6.89612 11.5423 6.85768C11.5039 6.81923 11.4547 6.80001 11.3948 6.80001H4.60516C4.54527 6.80001 4.4961 6.81923 4.45766 6.85768C4.41921 6.89612 4.39999 6.94529 4.39999 7.00518V12.9948C4.39999 13.0547 4.41921 13.1039 4.45766 13.1423C4.4961 13.1808 4.54527 13.2 4.60516 13.2ZM8.00349 11.0333C8.29171 11.0333 8.53544 10.9326 8.73466 10.731C8.93377 10.5296 9.03333 10.2847 9.03333 9.99651C9.03333 9.70829 8.93255 9.46456 8.73099 9.26534C8.52955 9.06623 8.28471 8.96668 7.99649 8.96668C7.70827 8.96668 7.46455 9.06745 7.26533 9.26901C7.06621 9.47045 6.96666 9.71529 6.96666 10.0035C6.96666 10.2917 7.06744 10.5355 7.26899 10.7347C7.47044 10.9338 7.71527 11.0333 8.00349 11.0333ZM5.99999 5.93334H9.99999V4.33334C9.99999 3.77779 9.80555 3.30556 9.41666 2.91667C9.02777 2.52779 8.55555 2.33334 7.99999 2.33334C7.44444 2.33334 6.97221 2.52779 6.58333 2.91667C6.19444 3.30556 5.99999 3.77779 5.99999 4.33334V5.93334Z" fill="#171719"/>
</svg>
